<svg xmlns="http://www.w3.org/2000/svg" viewBox="0 0 394 532" width="394" height="532">
	<style>
		tspan { white-space:pre }
		.shp0 { fill: #000000 } 
	</style>
	<g >
		<path fill-rule="evenodd" class="shp0" d="M394 -374L394 905L373 905L373 902.1C373 900.6 372.1 898.1 370.9 896.6C368.9 894 368.7 894 355.4 894C343.3 894 341.8 894.2 340 896C338.8 897.2 338 899.3 338 901.5L338 905L58 905L58 902.1C58 900.5 57 898.2 55.5 896.6C53.1 894 52.9 894 39.6 894C26.3 894 26.1 894 24.1 896.6C22.9 898.1 22 900.6 22 902.1L22 905L0 905L0 -374L22 -374L22 -370.4C22 -367.8 22.8 -366.1 24.9 -363.9C27.8 -361 27.9 -361 39.8 -361C51.1 -361 51.9 -361.1 54.4 -363.5C56.4 -365.3 57 -366.9 57 -370L57 -374L338 -374L338 -369.6C338 -366 338.5 -364.8 340.6 -363.1C343 -361.2 344.6 -361 355.2 -361C367.1 -361 367.2 -361 370.1 -363.9C372.2 -366.1 373 -367.8 373 -370.4L373 -374L394 -374ZM373 -321.9C373 -327.3 372.6 -329.3 370.9 -331.4C368.9 -334 368.8 -334 355.1 -334C337.9 -334 338 -334.1 338 -321.8C338 -314.3 338.2 -313.1 340.3 -311.2C342.4 -309.2 343.7 -309 355.2 -309L367.8 -309L370.4 -312.1C372.6 -314.7 373 -316.1 373 -321.9ZM373 -266.5C373 -272.8 372.7 -274.1 370.5 -276.4C368.1 -279 367.9 -279 354.7 -279C338 -279 338 -279 338 -266.8C338 -259.3 338.2 -258.1 340.3 -256.2C342.4 -254.2 343.7 -254 355.2 -254C367.4 -254 367.8 -254.1 370.4 -256.6C372.7 -259 373 -260 373 -266.5ZM373 -212.9C372.9 -224.9 371.4 -226 355 -226C343.1 -226 342.2 -225.9 340.2 -223.7C338.3 -221.7 338 -220.2 338 -213.2C338 -201.2 338.3 -201 355.4 -201C368.7 -201 368.9 -201 370.9 -203.6C372.6 -205.7 373 -207.7 373 -212.9ZM373 -159.8C373 -165.9 372.7 -167.3 370.4 -169.9L367.8 -173L355.1 -173C343.1 -173 342.2 -172.9 340.2 -170.7C338.3 -168.7 338 -167.2 338 -159.8C338 -151.7 338.2 -151 340.6 -149.1C342.9 -147.3 344.5 -147.1 355.3 -147.2C367.2 -147.3 367.6 -147.4 370.3 -150.1C372.7 -152.6 373 -153.5 373 -159.8ZM373 -105.8C373 -111.9 372.7 -113.3 370.4 -115.9L367.8 -119L355.1 -119C338.4 -119 338 -118.7 338 -106C338 -97.6 338.1 -97 340.6 -95.1C343 -93.2 344.6 -93 355.2 -93C367.1 -93 367.2 -93 370.1 -95.9C372.8 -98.6 373 -99.4 373 -105.8ZM373 -52.2C373 -58.6 372.8 -59.4 370.1 -62.1C367.2 -65 367.1 -65 355.2 -65C344.6 -65 343 -64.8 340.6 -62.9C338.1 -61 338 -60.4 338 -52.1C338 -44.2 338.2 -43.1 340.3 -41.2C342.4 -39.2 343.7 -39 355.2 -39L367.8 -39L370.4 -42.1C372.7 -44.7 373 -46.1 373 -52.2ZM373 1.2C373 -4.9 372.7 -6.3 370.4 -8.9L367.8 -12L354.9 -12C338.2 -12 338 -11.8 338 0.9C338 9.6 338.1 9.9 340.9 11.9C343.4 13.7 345.3 14 355.5 14C367 14 367.2 14 370.1 11.1C372.8 8.4 373 7.6 373 1.2ZM372.9 53C372.8 47.4 372.5 46.4 370 43.8C367.2 41 367 41 355 41C343.5 41 342.8 41.1 340.5 43.5C338.3 45.6 338 46.8 338 53.4C338 60.3 338.2 61 340.6 62.9C343 64.8 344.6 65 355.2 65C367 65 367.2 65 370 62.1C372.6 59.6 372.9 58.6 372.9 53ZM373 104.2C372.9 99 372.5 96.9 370.9 94.8L368.8 92L355.1 92C337.9 92 338 91.9 338 104.3C338 116.6 338.5 117 355.1 117L367.8 117L370.4 113.9C372.6 111.3 373 109.9 373 104.2ZM373 159.5C373 153.2 372.7 151.9 370.5 149.6C368.1 147 367.9 147 355 147C338.3 147 338 147.2 338 159.5C338 171.8 338.3 172 355 172C367.9 172 368.1 172 370.5 169.4C372.7 167.1 373 165.8 373 159.5ZM373 213C373 207.1 372.6 205.7 370.4 203.1L367.8 200L355.1 200C343.1 200 342.2 200.1 340.2 202.3C338.3 204.3 338 205.8 338 213.2C338 224.8 337.9 224.8 354.9 225.1L368.2 225.4L370.6 222.7C372.6 220.3 373 218.8 373 213ZM373 266.2C373 260.1 372.7 258.7 370.4 256.1L367.8 253L355.1 253C343.1 253 342.2 253.1 340.2 255.3C338.3 257.3 338 258.8 338 266.2C338 274.4 338.2 275 340.6 276.9C343 278.8 344.6 279 355.2 279C367.1 279 367.2 279 370.1 276.1C372.8 273.4 373 272.6 373 266.2ZM373 320.2C373 314.1 372.7 312.7 370.4 310.1L367.8 307L355.1 307C343.1 307 342.2 307.1 340.2 309.3C338.3 311.3 338 312.8 338 320.2C338 328.4 338.2 329 340.6 330.9C343 332.8 344.6 333 355.2 333C367.1 333 367.2 333 370.1 330.1C372.8 327.4 373 326.6 373 320.2ZM373 374.3C373 368.7 372.6 366.7 370.9 364.6C368.9 362 368.8 362 355.1 362C337.9 362 338 361.9 338 374.2C338 381.7 338.2 382.9 340.3 384.8C342.4 386.8 343.7 387 355.1 387C367.5 387 367.6 387 370.3 384.2C372.7 381.7 373 380.6 373 374.3ZM373 427.2C373 421.1 372.7 419.7 370.4 417.1L367.8 414L355.1 414C343.1 414 342.2 414.1 340.2 416.3C338.3 418.3 338 419.8 338 427.2C338 435.4 338.2 436 340.6 437.9C343 439.8 344.6 440 355.2 440C367.1 440 367.2 440 370.1 437.1C372.8 434.4 373 433.6 373 427.2ZM370.8 470.5C368.9 468 368.6 468 355.4 468C338.6 468 338 468.4 338 479.3C338 485.7 338.3 486.9 340.3 488.8C342.4 490.8 343.7 491 355.2 491L367.8 491L370.4 488C373.7 484 374 474.5 370.8 470.5ZM373 529.7C373 524.3 372.6 522.9 370.5 520.6C368.1 518 367.9 518 355 518C338.3 518 338 518.2 338 530.5C338 542.7 338.4 543 354.4 543C361.2 543 367.6 542.7 368.5 542.4C369.3 542 370.7 540.5 371.5 538.9C372.4 537.3 373 533.4 373 529.7ZM373 585.9C373 580.1 372.6 578.7 370.4 576.1L367.8 573L355 573C338.5 573 338 573.4 338 585.7C338 597.8 338.3 598 355.4 598C368.7 598 368.9 598 370.9 595.4C372.6 593.3 373 591.3 373 585.9ZM373 639.2C373 633.1 372.7 631.7 370.4 629.1L367.8 626L355.1 626C343.1 626 342.2 626.1 340.2 628.3C338.3 630.3 338 631.8 338 639.2C338 651 338.2 651.1 354.6 651.5L367.3 651.8L370.2 649C372.7 646.4 373 645.5 373 639.2ZM373 691.8C373 685.4 372.8 684.6 370.1 681.9C367.2 679 367.1 679 354.8 679C343.1 679 342.2 679.1 340.2 681.3C338.3 683.3 338 684.8 338 692.2C338 700.4 338.2 701 340.6 702.9C343 704.8 344.6 705 355.5 705L367.8 705L370.4 701.9C372.7 699.3 373 697.9 373 691.8ZM373 746.2C373 740.1 372.7 738.7 370.4 736.1L367.8 733L355.1 733C343.1 733 342.2 733.1 340.2 735.3C338.3 737.3 338 738.8 338 746.2C338 754.4 338.2 755 340.6 756.9C343 758.8 344.6 759 355.2 759C367.1 759 367.2 759 370.1 756.1C372.8 753.4 373 752.6 373 746.2ZM373 800.3C373 794.7 372.6 792.7 370.9 790.6C368.9 788 368.8 788 355.1 788C337.9 788 338 787.9 338 800.2C338 807.7 338.2 808.9 340.3 810.8C342.4 812.8 343.7 813 355.1 813C367.5 813 367.6 813 370.3 810.2C372.7 807.7 373 806.6 373 800.3ZM373 853.2C373 847.1 372.7 845.7 370.4 843.1L367.8 840L355.1 840C343.1 840 342.2 840.1 340.2 842.3C338.3 844.3 338 845.8 338 853.2C338 861.4 338.2 862 340.6 863.9C343 865.8 344.6 866 355.2 866C367.1 866 367.2 866 370.1 863.1C372.8 860.4 373 859.6 373 853.2ZM333 44L333 -363L64.5 -363L64.8 -159.5L65 44L333 44ZM333 470L333 63L65 63L65 470L333 470ZM333 896L333 489L65 489L65 896L333 896ZM57.6 50.8C58.2 47.6 57.8 46.7 55.2 44L52.2 41L40 41C28 41 27.8 41 25 43.8C22.5 46.4 22.2 47.4 22.1 53C22.1 58.6 22.4 59.6 25 62.1C27.8 65 28 65 40 65C51.5 65 52.2 64.9 54.5 62.5C56 61.1 57 58.9 57 57.3C57 55.8 57.3 52.8 57.6 50.8ZM57.4 479.9C57.9 474.2 57.8 473 55.9 470.7C53.9 468 53.8 468 40 468C26.4 468 26.1 468 24.2 470.5C21 474.5 21.3 484 24.6 488L27.2 491L39.5 491C51 491 52.1 490.8 54.3 488.8C56.3 487 56.9 485.2 57.4 479.9ZM57 -321.6C57 -333.9 56.9 -334 40 -334C26.2 -334 26.1 -334 24.1 -331.4C22.4 -329.3 22 -327.3 22 -321.5C22 -315 22.3 -314 24.6 -311.6C27.2 -309.1 27.6 -309 40 -309C51.9 -309 52.8 -309.1 54.8 -311.3C56.7 -313.3 57 -314.8 57 -321.6ZM57 -266.6C57 -273.7 56.7 -274.9 54.7 -276.8C52.6 -278.8 51.3 -279 39.3 -279C26.3 -279 26.1 -279 24.1 -276.4C22.4 -274.2 22 -272.3 22 -266.3C22 -259.8 22.3 -258.6 24.5 -256.5C26.8 -254.1 27.4 -254 39.8 -254C51.9 -254 52.8 -254.1 54.8 -256.3C56.7 -258.3 57 -259.8 57 -266.6ZM57 -213.6C57 -220.7 56.7 -221.9 54.7 -223.8C52.6 -225.8 51.3 -226 39.6 -226C27.5 -226 26.8 -225.9 24.5 -223.5C22.3 -221.4 22 -220.2 22 -213.7C22 -207.7 22.4 -205.8 24.1 -203.6C26.1 -201 26.3 -201 39.4 -201C52 -201 52.8 -201.1 54.8 -203.3C56.7 -205.3 57 -206.8 57 -213.6ZM54.9 -170.4C52.9 -173 52.7 -173 39.9 -173C27.1 -173 26.9 -173 24.5 -170.4C22.3 -168.1 22 -166.8 22 -160.5C22 -154.7 22.4 -152.7 24.1 -150.6C26.1 -148 26.3 -148 39.5 -148C52 -148 53.1 -148.1 55 -150.2C57.9 -153.4 57.9 -166.6 54.9 -170.4ZM57 -106.6C57 -113.7 56.7 -114.9 54.7 -116.8C52.6 -118.8 51.3 -119 39.6 -119C27.5 -119 26.8 -118.9 24.5 -116.5C22.3 -114.4 22 -113.2 22 -106.7C22 -100.7 22.4 -98.8 24.1 -96.6C26.1 -94 26.3 -94 39.4 -94C52 -94 52.8 -94.1 54.8 -96.3C56.7 -98.3 57 -99.8 57 -106.6ZM57 -52C57 -59.3 56.7 -60.3 54.5 -62.5C52.2 -64.9 51.5 -65 40.1 -65C28.7 -65 28 -64.9 25.1 -62.4C22.1 -59.9 22 -59.5 22 -52.1C22 -44.9 22.2 -44.2 24.8 -41.7C27.5 -39.1 27.9 -39 39.9 -39C51.5 -39 52.2 -39.1 54.5 -41.5C56.7 -43.7 57 -44.7 57 -52ZM57 0.7C57 -6.7 56.7 -7.9 54.7 -9.8C52.6 -11.8 51.3 -12 39.6 -12C27.5 -12 26.8 -11.9 24.5 -9.5C22.3 -7.4 22 -6.2 22 0.4C22 6.8 22.3 8.3 24.3 10.5C26.5 13.1 27 13.2 36 13.2C52.1 13.2 52.9 13.1 55 11C56.7 9.3 57 7.7 57 0.7ZM57 104.4C57 92.4 56.5 92 39.5 92C26.3 92 26.1 92 24.1 94.6C22.4 96.7 22 98.7 22 104.5C22 110.8 22.3 112.1 24.5 114.4C26.9 117 27.1 117 39.8 117C51.9 117 52.8 116.9 54.8 114.7C56.7 112.7 57 111.2 57 104.4ZM57 159.4C57 152.3 56.7 151.1 54.7 149.2C52.6 147.2 51.3 147 39.3 147C26.3 147 26.1 147 24.1 149.6C22.4 151.8 22 153.7 22 159.7C22 166.2 22.3 167.4 24.5 169.5C26.8 171.9 27.4 172 39.8 172C51.9 172 52.8 171.9 54.8 169.7C56.7 167.7 57 166.2 57 159.4ZM57 212.8C57 206.7 56.6 204.8 54.9 202.6C52.9 200 52.7 200 39.9 200C27.4 200 26.8 200.1 24.5 202.5C22.3 204.6 22 205.8 22 212.3C22 218.3 22.4 220.2 24.1 222.4C26.1 225 26.3 225 39.4 225C52 225 52.8 224.9 54.8 222.7C56.7 220.7 57 219.2 57 212.8ZM57 266C57 258.7 56.7 257.7 54.5 255.5C52.2 253.1 51.5 253 39.7 253C27.6 253 27.2 253.1 24.6 255.6C22.3 258 22 259 22 265.7C22 272.6 22.2 273.4 24.9 276.1C27.8 279 27.9 279 40 279C51.5 279 52.2 278.9 54.5 276.5C56.7 274.3 57 273.3 57 266ZM54.9 309.6C52.9 307 52.7 307 40.1 307C27.6 307 27.2 307.1 24.6 309.6C22.3 312 22 313 22 319.7C22 326.7 22.2 327.4 25 330.2C26.9 332 28.6 333 29.6 332.6C30.5 332.3 36.1 332 42 332C51.9 332 53.1 331.8 55 329.8C57.9 326.6 57.9 313.4 54.9 309.6ZM57 374.4C57 366.7 56.8 365.7 54.5 363.4C52.1 361 51.6 360.9 39.9 361.1C28.7 361.3 27.6 361.5 24.9 363.7C22.2 366 22 366.6 22 373.9C22 381.1 22.2 381.8 24.8 384.3C27.5 386.9 27.9 387 39.7 387C50.4 387 52 386.8 54.4 384.9C56.8 383 57 382.3 57 374.4ZM54.9 416.6C52.9 414 52.7 414 39.9 414C27.1 414 26.9 414 24.5 416.6C22.3 419 22 420.2 22 426.7C22 433.6 22.2 434.4 25 437.2L28 440.2L40.6 439.8C52.4 439.5 53.3 439.4 55.1 437.1C57.9 433.6 57.8 420.3 54.9 416.6ZM57 530.4C57 523.3 56.7 522.1 54.7 520.2C52.6 518.2 51.3 518 39.3 518C26.3 518 26.1 518 24.1 520.6C22.4 522.7 22 524.7 22 530.5C22 536.8 22.3 538.1 24.5 540.4C26.9 543 27.1 543 39.8 543C51.9 543 52.8 542.9 54.8 540.7C56.7 538.7 57 537.2 57 530.4ZM57 585.4C57 578.3 56.7 577.1 54.7 575.2C52.6 573.2 51.3 573 39.6 573C27.5 573 26.8 573.1 24.5 575.5C22.3 577.6 22 578.8 22 585.3C22 591.3 22.4 593.2 24.1 595.4C26.1 598 26.3 598 39.4 598C52 598 52.8 597.9 54.8 595.7C56.7 593.7 57 592.2 57 585.4ZM57 638.8C57 632.7 56.6 630.8 54.9 628.6C52.9 626 52.7 626 39.9 626C27.1 626 26.9 626 24.5 628.6C22.3 630.9 22 632.2 22 638.5C22 644.3 22.4 646.3 24.1 648.4C26.1 651 26.3 651 39.4 651C52 651 52.8 650.9 54.8 648.7C56.7 646.7 57 645.2 57 638.8ZM57 692C57 684.7 56.7 683.7 54.5 681.5C52.2 679.1 51.5 679 39.9 679C27.9 679 27.5 679.1 24.8 681.7C22.2 684.1 22 685 22 691.6C22 697.9 22.3 699.2 24.6 701.9L27.2 705L39.6 705C51.5 705 52.2 704.9 54.5 702.5C56.7 700.3 57 699.3 57 692ZM57 746C57 738.7 56.7 737.7 54.5 735.5C52.2 733.1 51.5 733 39.7 733C27.6 733 27.2 733.1 24.6 735.6C22.3 738 22 739 22 745.7C22 752.7 22.2 753.4 25 756.2C27.3 758.4 28.7 759.1 30.3 758.6C31.5 758.3 37.1 758 42.8 758C51.7 758 53.3 757.7 55 756C56.7 754.3 57 752.7 57 746ZM57 800.7C56.9 788 55.3 787 37.7 787.8C26.6 788.3 25.8 788.4 24 790.8C22.4 792.7 22 794.8 22 800.5C22 807 22.3 808 24.6 810.4C27.2 812.9 27.6 813 39.5 813C50.4 813 52 812.8 54.4 810.9C56.8 809 57 808.3 57 800.7ZM57 853.4C57 845.7 56.8 844.7 54.5 842.5C52.2 840.1 51.5 840 39.7 840C27.6 840 27.2 840.1 24.6 842.6C22.3 845 22 846 22 852.7C22 859.6 22.2 860.4 24.9 863.1C27.8 866 27.9 866 39.8 866C50.4 866 52 865.8 54.4 863.9C56.8 862 57 861.3 57 853.4Z" />
	</g>
</svg>